<svg width="154" height="32" viewBox="0 0 154 32" fill="none" xmlns="http://www.w3.org/2000/svg">
<g id="Hammer_Logo">
<path id="Vector" d="M141.96 6.94397H146.685L146.04 10.5234C147.186 8.16097 149.047 6.94397 151.481 6.94397H153.987L153.056 12.0267C150.98 12.0267 148.331 11.7404 146.828 13.2437C145.754 14.3176 145.468 15.6777 145.11 17.3243L143.463 26.6308H138.523L141.96 6.94397Z" fill="#F42434"/>
<path id="Vector_2" d="M127.857 10.7382C125.137 10.7382 123.132 12.17 122.13 14.604H132.582C132.296 12.0268 130.506 10.7382 127.857 10.7382ZM126.712 27.0604C120.054 27.132 116.045 22.0492 117.19 15.6062C118.049 10.3803 122.774 6.44292 128.072 6.51451C134.157 6.44292 138.023 11.4541 137.02 17.2528L136.806 18.4698H121.557C121.7 19.7584 122.273 20.8322 123.204 21.5481C124.707 22.7651 127.714 23.0514 129.504 22.0492C130.291 21.6197 130.935 21.1185 131.58 20.4027L135.374 23.0514C133.155 25.7002 130.291 26.9888 126.64 26.9888" fill="#F42434"/>
<path id="Vector_3" d="M85.6915 6.94412H90.6311L90.1299 9.52131C90.8458 8.59066 91.6333 7.87477 92.5639 7.37365C95.4275 5.79871 100.009 6.58618 101.226 9.87925C102.873 7.66001 105.02 6.58618 107.741 6.58618C109.888 6.58618 111.893 7.30207 113.181 8.9486C114.47 10.6667 114.685 12.886 114.255 15.1768L112.179 26.7025H107.24L109.172 15.6779C109.602 13.1007 109.172 10.8815 106.166 10.9531C103.302 10.9531 102.157 13.3155 101.656 15.9643L99.7944 26.6309H94.7832L96.7161 15.6063C97.0024 14.1745 96.8593 13.0291 96.4297 12.1701C95.5707 10.5951 93.1367 10.7383 92.0628 11.2394C90.989 11.7405 90.5595 12.3848 90.1299 13.1723C89.7004 13.9598 89.4141 14.8188 89.1993 15.9643C88.555 19.4721 87.9823 22.8367 87.2664 26.5593H82.3268L85.763 6.87253L85.6915 6.94412Z" fill="#F42434"/>
<path id="Vector_4" d="M51.9014 6.94412H56.841L56.3399 9.52131C57.0558 8.59066 57.8432 7.87477 58.7739 7.37365C61.6374 5.79871 66.2191 6.58618 67.4361 9.87925C69.0826 7.66001 71.2303 6.58618 73.9506 6.58618C76.0983 6.58618 78.1028 7.30207 79.3913 8.9486C80.6799 10.6667 80.8947 12.886 80.4652 15.1768L78.3891 26.7025H73.4495L75.3824 15.6779C75.8119 13.1007 75.3824 10.8815 72.3757 10.9531C69.5121 10.9531 68.3667 13.3155 67.8656 15.9643L66.0043 26.6309H60.9931L62.926 15.6063C63.2124 14.1745 63.0692 13.0291 62.6397 12.1701C61.7806 10.5951 59.3466 10.7383 58.2728 11.2394C57.3421 11.669 56.7694 12.3848 56.3399 13.1723C55.9104 13.8882 55.624 14.8188 55.4092 15.9643C54.765 19.4721 54.1922 22.8367 53.4764 26.5593H48.5368L51.973 6.87253L51.9014 6.94412Z" fill="#F42434"/>
<path id="Vector_5" d="M35.7943 22.4072C39.4453 22.4072 42.2372 18.3983 41.3781 14.962C40.3043 9.95085 33.8614 10.094 31.6421 14.1746C29.7808 17.5392 31.5705 22.4788 35.7943 22.4072ZM34.2909 27.0605C26.4878 27.0605 24.1254 17.8972 27.4184 11.9553C28.6354 9.73609 30.4251 8.08956 32.716 7.2305C36.2238 5.87032 40.877 6.44303 42.452 10.094L43.0247 6.94414H47.9643L44.528 26.6309H39.7316L40.1611 24.0538C38.7294 25.9151 36.7249 27.0605 34.3625 26.9889" fill="#F42434"/>
<path id="Vector_6" d="M17.6823 15.821H7.01566L5.15436 26.6309H0L4.58166 0H9.73602L7.87472 10.7383H18.5414L20.4027 0H25.4855L19.9732 32H14.8904L17.6823 15.821Z" fill="#F42434"/>
</g>
</svg>
