<svg xmlns="http://www.w3.org/2000/svg" width="123" height="25" viewBox="0 0 123 25" fill="none">
<g clip-path="url(#clip0_4156_49086)">
<path d="M113.858 5.42554H116.707C116.988 5.42554 117.202 5.67379 117.152 5.94491L117.092 6.26829C117.015 6.6864 117.534 6.96568 117.845 6.6668C118.701 5.83875 119.789 5.42554 121.105 5.42554H122.552C122.833 5.42554 123.045 5.67216 122.997 5.94327L122.437 9.06113C122.399 9.27182 122.212 9.42697 121.993 9.42534C120.408 9.42044 118.493 9.27998 117.38 10.3808C116.522 11.2154 116.268 12.2982 116.014 13.564L114.785 20.4807C114.749 20.6914 114.56 20.8466 114.341 20.8466H111.287C111.008 20.8466 110.796 20.6 110.842 20.3305L113.418 5.79138C113.454 5.58069 113.643 5.42554 113.862 5.42554H113.858Z" fill="#F5F4EE"/>
<path d="M41.8016 5.42568H44.8226C45.1032 5.42568 45.3169 5.67557 45.2652 5.94505C45.1884 6.35499 45.6793 6.62774 46.0033 6.35663C46.2906 6.11491 46.5945 5.90422 46.9168 5.72456C49.0427 4.5715 52.2942 4.99777 53.565 7.11772C53.7187 7.37414 54.0861 7.4019 54.2881 7.17978C55.534 5.80133 57.1238 5.1121 59.0576 5.1121C60.7995 5.1072 62.3809 5.6723 63.4013 6.96746C64.445 8.33448 64.5987 10.0706 64.2647 11.8508L62.6615 20.4841C62.6231 20.6932 62.436 20.8467 62.2173 20.8467H59.1595C58.8806 20.8467 58.6669 20.6001 58.7153 20.3306L60.1482 12.251C60.5055 10.2274 60.1014 8.51577 57.7617 8.5664C55.4555 8.56803 54.5754 10.3973 54.1662 12.4796L52.7351 20.4825C52.6966 20.6932 52.5096 20.8467 52.2908 20.8467H49.1796C48.8991 20.8467 48.687 20.5985 48.7354 20.329L50.1967 12.251C50.4071 11.1077 50.3219 10.2111 49.9512 9.55124C49.2631 8.32631 47.336 8.43084 46.4793 8.83425C45.7294 9.18703 45.2769 9.726 44.9145 10.3597C44.5905 10.9264 44.32 11.6287 44.1546 12.5646C43.6536 15.2153 43.2194 17.7142 42.6984 20.4841C42.6583 20.6932 42.4729 20.8467 42.2542 20.8467H39.2248C38.9459 20.8467 38.7338 20.6001 38.7806 20.3306L41.3557 5.79153C41.3925 5.58084 41.5812 5.42568 41.7999 5.42568H41.8016Z" fill="#F5F4EE"/>
<path d="M68.8404 5.42568H71.8614C72.142 5.42568 72.3558 5.67557 72.304 5.94505C72.2272 6.35499 72.7182 6.62774 73.0421 6.35663C73.3294 6.11491 73.6333 5.90422 73.9556 5.72456C76.0815 4.5715 79.333 4.99777 80.6039 7.11772C80.7575 7.37414 81.1249 7.4019 81.327 7.17978C82.5728 5.80133 84.1626 5.1121 86.0965 5.1121C87.8383 5.1072 89.4181 5.6723 90.4401 6.96746C91.4839 8.33448 91.6375 10.0706 91.3035 11.8508L89.7003 20.4841C89.6619 20.6932 89.4749 20.8467 89.2561 20.8467H86.1983C85.9194 20.8467 85.7057 20.6001 85.7541 20.3306L87.187 12.251C87.5444 10.2274 87.1402 8.51577 84.8006 8.5664C82.4943 8.56803 81.6142 10.3973 81.2051 12.4796L79.7739 20.4825C79.7355 20.6932 79.5484 20.8467 79.3297 20.8467H76.2185C75.9379 20.8467 75.7258 20.5985 75.7742 20.329L77.2355 12.251C77.4459 11.1077 77.3607 10.2111 76.99 9.55124C76.302 8.32631 74.3748 8.43084 73.5181 8.83425C72.7683 9.18703 72.3157 9.726 71.9533 10.3597C71.6293 10.9264 71.3588 11.6287 71.1934 12.5646C70.6925 15.2153 70.2583 17.7142 69.7372 20.4841C69.6971 20.6932 69.5118 20.8467 69.293 20.8467H66.2636C65.9847 20.8467 65.7727 20.6001 65.8194 20.3306L68.3945 5.79153C68.4313 5.58084 68.62 5.42568 68.8388 5.42568H68.8404Z" fill="#F5F4EE"/>
<path d="M13.5321 12.3653H5.90353C5.68477 12.3653 5.49606 12.5204 5.45932 12.7311L4.09326 20.4808C4.05652 20.6915 3.86781 20.8467 3.64904 20.8467H0.451008C0.172119 20.8467 -0.0399703 20.6001 0.00678952 20.3306L3.53214 0.365846C3.56888 0.155158 3.75759 0 3.97636 0H7.1744C7.45496 0 7.66705 0.246619 7.61862 0.516104L6.30767 7.88038C6.25924 8.14987 6.47133 8.39649 6.75189 8.39649H14.3787C14.5975 8.39649 14.7846 8.24296 14.823 8.03064L16.189 0.365846C16.2274 0.155158 16.4145 0 16.6332 0H19.8029C20.0818 0 20.2955 0.246619 20.2471 0.516104L15.9736 24.6342C15.9369 24.8448 15.7481 25 15.5294 25H12.3597C12.0792 25 11.8671 24.7534 11.9155 24.4839L13.9763 12.8814C14.0247 12.6119 13.8126 12.3653 13.5321 12.3653Z" fill="#F5F4EE"/>
<path d="M102.173 8.39645C100.236 8.40952 98.7951 9.2686 97.925 10.7728C97.7564 11.0635 97.9785 11.4245 98.3208 11.4245H105.408C105.697 11.4245 105.914 11.1599 105.849 10.8855C105.452 9.22941 104.104 8.38012 102.173 8.39645ZM101.282 21.1619C95.9377 21.2435 92.7647 17.2339 93.6883 12.2231C94.3646 8.11717 98.1588 5.04995 102.404 5.11201C107.265 5.04341 110.355 8.95339 109.536 13.5363L109.43 14.1422C109.393 14.3529 109.204 14.508 108.985 14.508H97.7129C97.419 14.508 97.2019 14.7792 97.2754 15.0568C97.4775 15.8261 97.8833 16.4483 98.4912 16.9203C99.6652 17.8905 102.088 18.0995 103.526 17.3058C104.036 17.0363 104.506 16.6966 104.936 16.2834C105.089 16.1347 105.33 16.1168 105.507 16.2376L107.821 17.8202C108.047 17.9738 108.08 18.2906 107.892 18.4866C106.15 20.2799 104.007 21.1782 101.282 21.1635" fill="#F5F4EE"/>
<path d="M28.5351 17.5068C31.4543 17.5329 33.6737 14.3841 33.0224 11.6941C32.149 7.7972 26.9871 7.8609 25.2135 11.08C23.7089 13.6997 25.13 17.5705 28.5351 17.5068ZM27.3277 21.162C21.0653 21.1587 19.2099 14.0035 21.8184 9.33898C22.7703 7.62898 24.2249 6.32239 26.0619 5.62663C28.4984 4.70058 31.658 4.93414 33.2696 6.92179C33.5101 7.21741 33.9977 7.08511 34.0628 6.71273L34.2248 5.79322C34.2616 5.5809 34.4503 5.42737 34.669 5.42737H37.6951C37.9739 5.42737 38.186 5.67399 38.1393 5.94348L35.5641 20.4826C35.5274 20.6933 35.3387 20.8484 35.1199 20.8484H32.1774C31.8985 20.8484 31.6864 20.6034 31.7332 20.334L31.7465 20.2588C31.815 19.857 31.3341 19.5827 31.0168 19.8456C30.0047 20.6851 28.7673 21.1734 27.3311 21.1604" fill="#F5F4EE"/>
</g>
<defs>
<clipPath id="clip0_4156_49086">
<rect width="123" height="25" fill="white"/>
</clipPath>
</defs>
</svg>