<svg xmlns="http://www.w3.org/2000/svg" width="234" height="58" viewBox="0 0 234 58" fill="none">
  <path d="M205.32 10.0433H212.153L211.221 15.2203C212.878 11.8035 215.57 10.0433 219.09 10.0433H222.714L221.368 17.3947C218.366 17.3947 214.535 16.9805 212.36 19.1548C210.807 20.7079 210.393 22.6752 209.875 25.0566L207.494 38.5168H200.35L205.32 10.0433Z" fill="#F0EFEE"/>
  <path d="M184.922 15.5309C180.988 15.5309 178.088 17.6017 176.639 21.1221H191.756C191.342 17.3947 188.753 15.5309 184.922 15.5309ZM183.265 39.138C173.636 39.2415 167.838 31.8902 169.495 22.5716C170.737 15.0132 177.571 9.31857 185.233 9.4221C194.034 9.31857 199.625 16.5663 198.175 24.9531L197.865 26.7132H175.811C176.018 28.577 176.846 30.13 178.192 31.1654C180.366 32.9256 184.715 33.3398 187.303 31.8902C188.442 31.269 189.374 30.5442 190.306 29.5088L195.794 33.3398C192.584 37.1707 188.442 39.0345 183.162 39.0345" fill="#F0EFEE"/>
  <path d="M123.937 10.0433H131.081L130.356 13.7708C131.392 12.4247 132.53 11.3893 133.876 10.6646C138.018 8.3867 144.645 9.52564 146.405 14.2885C148.786 11.0787 151.892 9.52563 155.827 9.52563C158.933 9.52563 161.832 10.561 163.696 12.9424C165.56 15.4274 165.87 18.6371 165.249 21.9504L162.246 38.6203H155.102L157.898 22.6752C158.519 18.9477 157.898 15.738 153.549 15.8416C149.407 15.8416 147.751 19.2584 147.026 23.0893L144.334 38.5167H137.086L139.882 22.5716C140.296 20.5008 140.089 18.8442 139.468 17.6017C138.225 15.3239 134.705 15.5309 133.152 16.2557C131.599 16.9805 130.977 17.9123 130.356 19.0513C129.735 20.1902 129.321 21.4327 129.01 23.0893C128.078 28.1628 127.25 33.0291 126.215 38.4132H119.07L124.04 9.93979L123.937 10.0433Z" fill="#F0EFEE"/>
  <path d="M75.0661 10.0433H82.2103L81.4855 13.7708C82.5209 12.4247 83.6599 11.3893 85.0059 10.6646C89.1475 8.3867 95.774 9.52564 97.5342 14.2885C99.9156 11.0787 103.022 9.52563 106.956 9.52563C110.062 9.52563 112.962 10.561 114.825 12.9424C116.689 15.4274 117 18.6371 116.378 21.9504L113.376 38.6203H106.232L109.027 22.6752C109.648 18.9477 109.027 15.738 104.678 15.8416C100.537 15.8416 98.8802 19.2584 98.1554 23.0893L95.4634 38.5167H88.2156L91.0112 22.5716C91.4254 20.5008 91.2183 18.8442 90.597 17.6017C89.3546 15.3239 85.8342 15.5309 84.2811 16.2557C82.9351 16.877 82.1068 17.9123 81.4855 19.0513C80.8643 20.0867 80.4501 21.4327 80.1395 23.0893C79.2077 28.1628 78.3793 33.0291 77.3439 38.4132H70.1997L75.1696 9.93979L75.0661 10.0433Z" fill="#F0EFEE"/>
  <path d="M51.7702 32.4079C57.0507 32.4079 61.0888 26.6097 59.8463 21.6398C58.2932 14.392 48.9746 14.5991 45.7649 20.5008C43.0729 25.3672 45.6614 32.5114 51.7702 32.4079ZM49.5959 39.138C38.31 39.138 34.8932 25.8849 39.6561 17.2911C41.4162 14.0814 44.0047 11.7 47.318 10.4575C52.3914 8.49024 59.1215 9.31855 61.3994 14.5991L62.2277 10.0433H69.3719L64.402 38.5167H57.4649L58.0861 34.7893C56.0153 37.4814 53.1162 39.138 49.6994 39.0344" fill="#F0EFEE"/>
  <path d="M25.5743 22.8823H10.1469L7.45486 38.5168H0L6.62654 0H14.0814L11.3894 15.531H26.8168L29.5088 0H36.8601L28.8876 46.2822H21.5363L25.5743 22.8823Z" fill="#F0EFEE"/>
  <path d="M62.849 46.9034H64.1951L66.8871 51.5627L71.3393 46.9034H72.6853L70.9251 57.1539H69.372L70.7181 49.4919L66.5765 53.8406L63.988 49.3884L62.642 57.1539H61.0889L62.849 46.9034Z" fill="#F0EFEE"/>
  <path d="M73.0991 57.2575L74.4451 49.6991H75.9982L74.6522 57.2575H73.0991ZM75.4805 48.4566C75.1699 48.4566 74.8593 48.3531 74.6522 48.146C74.4451 47.9389 74.4451 47.6283 74.4451 47.3177C74.4451 47.007 74.6522 46.8 74.8593 46.6964C75.0664 46.4893 75.2735 46.3858 75.5841 46.3858C75.8947 46.3858 75.8947 46.3858 76.1018 46.4893C76.3089 46.5929 76.3088 46.6964 76.4124 46.8C76.4124 46.9035 76.5159 47.007 76.6195 47.2141C76.723 47.4212 76.6195 47.5247 76.6195 47.6283C76.6195 47.9389 76.4124 48.146 76.2053 48.2495C75.9982 48.4566 75.7912 48.5601 75.4805 48.5601V48.4566Z" fill="#F0EFEE"/>
  <path d="M77.4478 49.5956H78.7938L79.1045 47.8354L80.7611 47.0071L80.2434 49.6991H82.1071L81.9 51.0451H80.0363L79.5186 54.2549C79.5186 54.5655 79.4151 54.8761 79.5186 55.0832C79.5186 55.2903 79.5186 55.4973 79.7257 55.6009C79.8292 55.7044 80.0363 55.808 80.2434 55.808C80.4505 55.808 80.7611 55.808 81.1753 55.808L80.9682 57.154H80.6576C80.0363 57.154 79.6222 57.154 79.208 57.0504C78.7938 57.0504 78.5868 56.7398 78.3797 56.5327C78.1726 56.3256 78.0691 56.015 77.9655 55.6009C77.9655 55.1867 77.9655 54.669 77.9655 54.1513L78.4832 50.9416H77.1372L77.3443 49.5956H77.4478Z" fill="#F0EFEE"/>
  <path d="M88.4226 57.361C87.4908 57.361 86.766 57.0504 86.3518 56.4292C85.9377 55.8079 85.7306 54.9796 85.9377 53.9442L86.6625 49.5956H88.2156L87.4908 53.8407C87.3872 54.5655 87.4908 55.0832 87.6979 55.3938C87.9049 55.8079 88.3191 56.015 88.9403 56.015C89.5616 56.015 89.9757 55.8079 90.3899 55.3938C90.804 54.9796 91.0111 54.4619 91.1147 53.6336L91.8394 49.492H93.3925L92.0465 57.0504H90.4934V56.1185C90.3899 56.4292 90.0793 56.7398 89.6651 56.9469C89.251 57.1539 88.8368 57.2575 88.4226 57.2575V57.361Z" fill="#F0EFEE"/>
  <path d="M95.3602 49.5956H96.9133L96.7062 50.631C97.0168 50.2168 97.3275 49.9062 97.7416 49.6991C98.1558 49.492 98.5699 49.3885 99.0876 49.3885C99.6053 49.3885 100.019 49.3885 100.33 49.6991C100.744 49.9062 100.951 50.1133 101.262 50.4239C101.469 50.7345 101.676 51.1487 101.676 51.5628C101.676 51.977 101.676 52.4947 101.676 53.0124L100.951 57.154H99.3983L100.123 53.0124C100.123 52.7018 100.123 52.3911 100.123 52.0805C100.123 51.7699 100.123 51.5628 99.9159 51.3557C99.8124 51.1487 99.6053 51.0451 99.3983 50.9416C99.1912 50.838 98.8805 50.7345 98.5699 50.7345C97.9487 50.7345 97.431 50.9416 97.0168 51.3557C96.6027 51.7699 96.3956 52.3911 96.1885 53.1159L95.4637 57.154H93.9106L95.2567 49.5956H95.3602Z" fill="#F0EFEE"/>
  <path d="M105.714 57.361C105.3 57.361 104.886 57.361 104.575 57.2575C104.265 57.2575 103.85 57.0504 103.643 56.8433C103.333 56.7398 103.126 56.5327 102.919 56.3256C102.711 56.1185 102.504 55.9114 102.401 55.7044L103.747 54.8761C103.954 55.1867 104.265 55.4973 104.679 55.8079C105.093 56.015 105.507 56.1185 106.025 56.1185C106.542 56.1185 106.75 56.1185 107.06 55.8079C107.267 55.6008 107.474 55.3938 107.474 55.0831C107.474 54.9796 107.474 54.7725 107.474 54.669C107.474 54.5654 107.267 54.4619 107.164 54.3584C106.957 54.3584 106.853 54.1513 106.542 54.0477C106.335 54.0477 106.128 53.8407 105.818 53.8407C105.507 53.8407 105.196 53.6336 104.886 53.53C104.575 53.4265 104.368 53.2194 104.161 53.0123C103.954 52.8053 103.747 52.5982 103.643 52.2876C103.643 51.9769 103.54 51.6663 103.643 51.2522C103.747 50.6309 104.058 50.2168 104.679 49.8026C105.3 49.3885 105.921 49.2849 106.646 49.2849C107.371 49.2849 107.992 49.3885 108.51 49.6991C109.027 50.0097 109.442 50.3203 109.856 50.7345L108.613 51.5628C108.406 51.2522 108.096 50.9415 107.785 50.838C107.474 50.6309 107.06 50.5274 106.542 50.5274C106.025 50.5274 105.818 50.5274 105.611 50.7345C105.404 50.838 105.196 51.0451 105.196 51.3557C105.196 51.5628 105.196 51.6663 105.196 51.7699C105.196 51.8734 105.404 51.9769 105.507 52.0805C105.611 52.0805 105.818 52.2876 106.025 52.2876C106.232 52.2876 106.439 52.3911 106.75 52.4946C107.06 52.4946 107.371 52.7017 107.681 52.8053C107.992 52.9088 108.199 53.1159 108.51 53.323C108.717 53.53 108.924 53.7371 109.027 54.0477C109.131 54.3584 109.131 54.669 109.027 55.0831C109.027 55.3938 108.82 55.7044 108.717 55.9115C108.51 56.1185 108.303 56.4292 108.096 56.5327C107.785 56.7398 107.474 56.8433 107.164 56.9469C106.853 56.9469 106.439 57.0504 106.025 57.0504L105.714 57.361Z" fill="#F0EFEE"/>
  <path d="M113.065 55.8079L118.656 50.9415H114.1L114.411 49.5955H121.038L120.83 50.9415L115.239 55.8079H120.002L119.795 57.1539H112.961L113.169 55.8079H113.065Z" fill="#F0EFEE"/>
  <path d="M123.937 57.361C123.005 57.361 122.281 57.0504 121.866 56.4292C121.452 55.8079 121.245 54.9796 121.452 53.9442L122.177 49.5956H123.73L123.005 53.8407C122.902 54.5655 123.005 55.0832 123.213 55.3938C123.42 55.8079 123.834 56.015 124.455 56.015C125.076 56.015 125.49 55.8079 125.905 55.3938C126.319 54.9796 126.526 54.4619 126.629 53.6336L127.354 49.492H128.907L127.561 57.0504H126.008V56.1185C125.905 56.4292 125.594 56.7398 125.18 56.9469C124.766 57.1539 124.351 57.2575 123.937 57.2575V57.361Z" fill="#F0EFEE"/>
  <path d="M130.771 49.5956H132.324L132.117 50.6309C132.427 50.2168 132.738 50.0097 133.152 49.8026C133.566 49.5955 133.98 49.492 134.498 49.492C135.016 49.492 135.534 49.5955 135.948 49.8026C136.362 50.0097 136.673 50.4239 136.776 50.838C137.087 50.4239 137.501 50.0097 137.915 49.8026C138.329 49.5955 138.847 49.492 139.468 49.492C140.089 49.492 140.4 49.492 140.711 49.6991C141.125 49.9062 141.435 50.1132 141.642 50.4239C141.85 50.7345 142.057 51.0451 142.16 51.5628C142.16 51.977 142.16 52.4947 142.16 52.9088L141.332 57.2575H139.779L140.504 53.1159C140.504 52.8053 140.504 52.4947 140.504 52.184C140.504 51.8734 140.503 51.6663 140.296 51.4593C140.193 51.2522 139.986 51.1486 139.779 51.0451C139.572 50.9416 139.261 50.838 138.95 50.838C138.329 50.838 137.811 51.0451 137.501 51.4593C137.19 51.8734 136.983 52.4947 136.776 53.1159L136.051 57.1539H134.498L135.223 53.0124C135.327 52.2876 135.223 51.7699 135.119 51.3557C134.912 50.9416 134.498 50.7345 133.877 50.7345C133.256 50.7345 132.738 50.9416 132.427 51.3557C132.117 51.7699 131.806 52.3911 131.703 53.1159C131.703 53.1159 131.703 53.2194 131.703 53.323C131.703 53.4265 131.703 53.6336 131.703 53.8407C131.703 54.0478 131.703 54.2548 131.599 54.4619C131.599 54.669 131.599 54.9796 131.496 55.1867C131.496 55.8079 131.288 56.4292 131.185 57.0504H129.632L130.978 49.492L130.771 49.5956Z" fill="#F0EFEE"/>
  <path d="M148.579 57.2575L150.133 48.4566H147.13L147.337 47.0071H154.999L154.792 48.4566H151.789L150.236 57.2575H148.683H148.579Z" fill="#F0EFEE"/>
  <path d="M154.895 49.5955H156.345L156.138 50.9415C156.345 50.5274 156.655 50.2168 157.07 49.9061C157.38 49.6991 157.898 49.5955 158.416 49.5955H159.348L159.037 51.1486H158.209C157.794 51.1486 157.484 51.1486 157.173 51.2522C156.863 51.2522 156.655 51.4592 156.448 51.6663C156.241 51.8734 156.138 52.0805 156.034 52.3911C155.931 52.7017 155.827 53.0123 155.724 53.4265L155.102 57.1539H153.653L154.999 49.5955H154.895Z" fill="#F0EFEE"/>
  <path d="M162.971 57.3611C162.35 57.3611 161.833 57.2575 161.418 57.0504C161.004 56.8433 160.59 56.5327 160.279 56.1186C159.969 55.7044 159.762 55.2903 159.658 54.669C159.555 54.1513 159.555 53.5301 159.658 53.0124C159.658 52.4947 159.865 52.0805 160.176 51.5628C160.383 51.1487 160.694 50.7345 161.108 50.4239C161.418 50.1133 161.833 49.9062 162.35 49.6991C162.764 49.492 163.282 49.3885 163.8 49.3885C164.318 49.3885 165.042 49.492 165.456 49.8026C165.871 50.1133 166.181 50.4239 166.492 50.9416L166.699 49.5956H168.252L166.906 57.154H165.353L165.56 56.1186C165.249 56.4292 164.939 56.7398 164.525 56.9469C164.11 57.154 163.696 57.2575 163.075 57.2575L162.971 57.3611ZM163.386 55.9115C163.696 55.9115 164.007 55.9115 164.318 55.7044C164.628 55.6009 164.835 55.3938 165.146 55.1867C165.353 54.9796 165.56 54.7726 165.767 54.4619C165.974 54.1513 166.078 53.8407 166.078 53.5301C166.078 53.1159 166.078 52.8053 166.078 52.4947C166.078 52.1841 165.871 51.8734 165.664 51.5628C165.456 51.3557 165.249 51.1487 164.939 50.9416C164.628 50.838 164.317 50.7345 163.903 50.7345C163.489 50.7345 163.282 50.7345 162.971 50.9416C162.661 51.1487 162.454 51.2522 162.143 51.4593C161.936 51.6664 161.729 51.8734 161.522 52.1841C161.315 52.4947 161.211 52.8053 161.211 53.1159C161.211 53.5301 161.211 53.8407 161.211 54.1513C161.211 54.4619 161.418 54.7726 161.625 55.0832C161.833 55.2903 162.04 55.6009 162.35 55.7044C162.661 55.9115 162.971 55.9115 163.386 55.9115Z" fill="#F0EFEE"/>
  <path d="M171.462 57.361C170.53 57.361 169.805 57.0504 169.391 56.4292C168.977 55.8079 168.77 54.9796 168.977 53.9442L169.702 49.5956H171.255L170.53 53.8407C170.426 54.5655 170.53 55.0832 170.737 55.3938C170.944 55.8079 171.358 56.015 171.979 56.015C172.601 56.015 173.015 55.8079 173.429 55.3938C173.843 54.9796 174.05 54.4619 174.154 53.6336L174.879 49.492H176.432L175.086 57.0504H173.532V56.1185C173.429 56.4292 173.118 56.7398 172.704 56.9469C172.29 57.1539 171.876 57.2575 171.462 57.2575V57.361Z" fill="#F0EFEE"/>
  <path d="M178.399 49.5956H179.952L179.745 50.6309C180.055 50.2168 180.366 50.0097 180.78 49.8026C181.194 49.5955 181.608 49.492 182.126 49.492C182.644 49.492 183.162 49.5955 183.576 49.8026C183.99 50.0097 184.3 50.4239 184.404 50.838C184.715 50.4239 185.129 50.0097 185.543 49.8026C185.957 49.5955 186.475 49.492 187.096 49.492C187.717 49.492 188.028 49.492 188.339 49.6991C188.753 49.9062 189.063 50.1132 189.27 50.4239C189.477 50.7345 189.685 51.0451 189.788 51.5628C189.788 51.977 189.788 52.4947 189.788 52.9088L188.96 57.2575H187.407L188.131 53.1159C188.131 52.8053 188.131 52.4947 188.131 52.184C188.131 51.8734 188.131 51.6663 187.924 51.4593C187.821 51.2522 187.614 51.1486 187.407 51.0451C187.2 50.9416 186.889 50.838 186.578 50.838C185.957 50.838 185.439 51.0451 185.129 51.4593C184.818 51.8734 184.611 52.4947 184.404 53.1159L183.679 57.1539H182.126L182.851 53.0124C182.954 52.2876 182.851 51.7699 182.747 51.3557C182.54 50.9416 182.126 50.7345 181.505 50.7345C180.884 50.7345 180.366 50.9416 180.055 51.3557C179.745 51.7699 179.434 52.3911 179.331 53.1159C179.331 53.1159 179.331 53.2194 179.331 53.323C179.331 53.4265 179.331 53.6336 179.331 53.8407C179.331 54.0478 179.331 54.2548 179.227 54.4619C179.227 54.669 179.227 54.9796 179.123 55.1867C179.123 55.8079 178.916 56.4292 178.813 57.0504H177.26L178.606 49.492L178.399 49.5956Z" fill="#F0EFEE"/>
  <path d="M192.687 46.9034H196.621C197.243 46.9034 197.76 46.9034 198.175 47.2141C198.589 47.5247 199.003 47.6282 199.314 48.0424C199.624 48.353 199.831 48.7672 199.935 49.2849C200.038 49.699 200.038 50.2167 199.935 50.7344C199.831 51.4592 199.521 52.0804 199.003 52.5981C198.485 53.1158 197.864 53.4264 197.139 53.6335L199.003 57.2574H197.243L195.586 53.8406H192.894L192.273 57.2574H190.72L192.48 47.007L192.687 46.9034ZM193.929 48.2495L193.205 52.2875H195.897C196.621 52.2875 197.243 52.0804 197.657 51.7698C198.071 51.4592 198.278 50.9415 198.382 50.4238C198.485 49.699 198.382 49.1813 198.071 48.7672C197.76 48.353 197.139 48.1459 196.414 48.1459H194.033L193.929 48.2495Z" fill="#F0EFEE"/>
  <path d="M204.076 57.3611C203.455 57.3611 202.938 57.2575 202.523 57.0504C202.109 56.8433 201.695 56.5327 201.384 56.1186C201.074 55.7044 200.867 55.2903 200.763 54.669C200.66 54.1513 200.66 53.5301 200.763 53.0124C200.763 52.4947 200.97 52.0805 201.281 51.5628C201.488 51.1487 201.799 50.7345 202.213 50.4239C202.523 50.1133 202.938 49.9062 203.455 49.6991C203.869 49.492 204.387 49.3885 204.905 49.3885C205.422 49.3885 206.147 49.492 206.561 49.8026C206.976 50.1133 207.286 50.4239 207.597 50.9416L207.804 49.5956H209.357L208.011 57.154H206.458L206.665 56.1186C206.354 56.4292 206.044 56.7398 205.63 56.9469C205.215 57.154 204.801 57.2575 204.18 57.2575L204.076 57.3611ZM204.491 55.9115C204.801 55.9115 205.112 55.9115 205.422 55.7044C205.733 55.6009 205.94 55.3938 206.251 55.1867C206.458 54.9796 206.665 54.7726 206.872 54.4619C207.079 54.1513 207.183 53.8407 207.183 53.5301C207.183 53.1159 207.183 52.8053 207.183 52.4947C207.183 52.1841 206.976 51.8734 206.769 51.5628C206.561 51.3557 206.354 51.1487 206.044 50.9416C205.733 50.838 205.422 50.7345 205.008 50.7345C204.594 50.7345 204.387 50.7345 204.076 50.9416C203.766 51.1487 203.559 51.2522 203.248 51.4593C203.041 51.6664 202.834 51.8734 202.627 52.1841C202.42 52.4947 202.316 52.8053 202.316 53.1159C202.316 53.5301 202.316 53.8407 202.316 54.1513C202.316 54.4619 202.523 54.7726 202.73 55.0832C202.938 55.2903 203.145 55.6009 203.455 55.7044C203.766 55.9115 204.076 55.9115 204.491 55.9115Z" fill="#F0EFEE"/>
  <path d="M212.671 57.361C211.739 57.361 211.014 57.0504 210.6 56.4292C210.186 55.8079 209.979 54.9796 210.186 53.9442L210.911 49.5956H212.464L211.739 53.8407C211.635 54.5655 211.739 55.0832 211.946 55.3938C212.153 55.8079 212.567 56.015 213.188 56.015C213.81 56.015 214.224 55.8079 214.638 55.3938C215.052 54.9796 215.259 54.4619 215.363 53.6336L216.088 49.492H217.641L216.295 57.0504H214.741V56.1185C214.638 56.4292 214.327 56.7398 213.913 56.9469C213.499 57.1539 213.085 57.2575 212.671 57.2575V57.361Z" fill="#F0EFEE"/>
  <path d="M219.504 49.5956H221.057L220.85 50.6309C221.16 50.2168 221.471 50.0097 221.885 49.8026C222.299 49.5955 222.713 49.492 223.231 49.492C223.749 49.492 224.266 49.5955 224.681 49.8026C225.095 50.0097 225.405 50.4239 225.509 50.838C225.82 50.4239 226.234 50.0097 226.648 49.8026C227.062 49.5955 227.58 49.492 228.201 49.492C228.822 49.492 229.133 49.492 229.443 49.6991C229.858 49.9062 230.168 50.1132 230.375 50.4239C230.582 50.7345 230.789 51.0451 230.893 51.5628C230.893 51.977 230.893 52.4947 230.893 52.9088L230.065 57.2575H228.512L229.236 53.1159C229.236 52.8053 229.236 52.4947 229.236 52.184C229.236 51.8734 229.236 51.6663 229.029 51.4593C228.926 51.2522 228.719 51.1486 228.512 51.0451C228.305 50.9416 227.994 50.838 227.683 50.838C227.062 50.838 226.544 51.0451 226.234 51.4593C225.923 51.8734 225.716 52.4947 225.509 53.1159L224.784 57.1539H223.231L223.956 53.0124C224.059 52.2876 223.956 51.7699 223.852 51.3557C223.645 50.9416 223.231 50.7345 222.61 50.7345C221.989 50.7345 221.471 50.9416 221.16 51.3557C220.85 51.7699 220.539 52.3911 220.436 53.1159C220.436 53.1159 220.436 53.2194 220.436 53.323C220.436 53.4265 220.436 53.6336 220.436 53.8407C220.436 54.0478 220.436 54.2548 220.332 54.4619C220.332 54.669 220.332 54.9796 220.228 55.1867C220.228 55.8079 220.021 56.4292 219.918 57.0504H218.365L219.711 49.492L219.504 49.5956Z" fill="#F0EFEE"/>
  <path d="M232.861 57.4645C232.55 57.4645 232.24 57.361 232.033 57.1539C231.826 56.9468 231.826 56.6362 231.826 56.3256C231.826 56.0149 232.033 55.8079 232.24 55.6008C232.447 55.3937 232.758 55.2902 232.965 55.2902C233.172 55.2902 233.275 55.2902 233.482 55.2902C233.586 55.2902 233.689 55.3937 233.793 55.6008C233.793 55.7043 233.896 55.8079 234 56.0149C234 56.1185 234 56.3256 234 56.4291C234 56.7397 233.793 56.9468 233.586 57.1539C233.379 57.361 233.172 57.4645 232.861 57.4645Z" fill="#F0EFEE"/>
</svg>