<svg width="229" height="56" viewBox="0 0 229 56" fill="none" xmlns="http://www.w3.org/2000/svg">
<g id="LOGOS">
<g id="Hammer_Logo">
<path id="Vector" d="M200.087 9.78741H206.746L205.838 14.8325C207.453 11.5027 210.076 9.78741 213.507 9.78741H217.038L215.727 16.9514C212.8 16.9514 209.067 16.5478 206.948 18.6667C205.435 20.1802 205.031 22.0973 204.527 24.4181L202.206 37.5352H195.244L200.087 9.78741Z" fill="#F42434"/>
<path id="Vector_2" d="M180.21 15.1352C176.375 15.1352 173.55 17.1532 172.138 20.5838H186.869C186.466 16.9514 183.943 15.1352 180.21 15.1352ZM178.595 38.1406C169.212 38.2415 163.561 31.0775 165.175 21.9964C166.386 14.6307 173.046 9.08112 180.512 9.18202C189.089 9.08112 194.538 16.1442 193.125 24.3172L192.822 26.0325H171.33C171.532 27.8487 172.339 29.3622 173.651 30.3712C175.77 32.0865 180.008 32.4902 182.53 31.0775C183.64 30.4721 184.548 29.7658 185.457 28.7568L190.804 32.4901C187.676 36.2235 183.64 38.0397 178.494 38.0397" fill="#F42434"/>
<path id="Vector_3" d="M120.778 9.7874H127.741L127.034 13.4198C128.043 12.1081 129.153 11.0991 130.465 10.3928C134.501 8.17299 140.959 9.2829 142.674 13.9243C144.995 10.7964 148.022 9.2829 151.856 9.2829C154.883 9.2829 157.708 10.2919 159.524 12.6126C161.341 15.0343 161.643 18.1622 161.038 21.391L158.112 37.6361H151.15L153.874 22.0973C154.479 18.4649 153.874 15.337 149.636 15.4379C145.6 15.4379 143.986 18.7676 143.279 22.5009L140.656 37.5352H133.593L136.317 21.9964C136.721 19.9784 136.519 18.364 135.914 17.1532C134.703 14.9334 131.272 15.1352 129.759 15.8415C128.245 16.5478 127.64 17.4559 127.034 18.5658C126.429 19.6757 126.025 20.8865 125.723 22.5009C124.815 27.4451 124.007 32.1874 122.998 37.4343H116.036L120.879 9.6865L120.778 9.7874Z" fill="#F42434"/>
<path id="Vector_4" d="M73.153 9.7874H80.1152L79.4089 13.4198C80.4179 12.1081 81.5278 11.0991 82.8395 10.3928C86.8755 8.17299 93.3332 9.2829 95.0485 13.9243C97.3692 10.7964 100.396 9.2829 104.23 9.2829C107.258 9.2829 110.083 10.2919 111.899 12.6126C113.715 15.0343 114.018 18.1622 113.412 21.391L110.486 37.6361H103.524L106.249 22.0973C106.854 18.4649 106.249 15.337 102.011 15.4379C97.9746 15.4379 96.3602 18.7676 95.6539 22.5009L93.0305 37.5352H85.9674L88.6917 21.9964C89.0954 19.9784 88.8935 18.364 88.2881 17.1532C87.0773 14.9334 83.6467 15.1352 82.1332 15.8415C80.8215 16.4469 80.0143 17.4559 79.4089 18.5658C78.8034 19.5748 78.3998 20.8865 78.0971 22.5009C77.189 27.4451 76.3818 32.1874 75.3728 37.4343H68.4106L73.2539 9.6865L73.153 9.7874Z" fill="#F42434"/>
<path id="Vector_5" d="M50.4507 31.582C55.5967 31.582 59.5318 25.9315 58.321 21.0883C56.8075 14.0252 47.7264 14.227 44.5985 19.9784C41.9751 24.7207 44.4976 31.6829 50.4507 31.582ZM48.3318 38.1406C37.3336 38.1406 34.0039 25.2252 38.6453 16.8505C40.3606 13.7225 42.8832 11.4018 46.112 10.191C51.0562 8.27387 57.6147 9.08108 59.8345 14.227L60.6417 9.78739H67.6039L62.7607 37.5352H56.0003L56.6057 33.9027C54.5877 36.5262 51.7625 38.1406 48.4327 38.0397" fill="#F42434"/>
<path id="Vector_6" d="M24.9225 22.2991H9.8883L7.26487 37.5352H0L6.45766 0H13.7225L11.0991 15.1352H26.1334L28.7568 0H35.9207L28.1514 45.1027H20.9874L24.9225 22.2991Z" fill="#F42434"/>
</g>
<path id="Vector_7" d="M61.2471 45.7081H62.5588L65.1822 50.2487L69.5209 45.7081H70.8326L69.1173 55.6973H67.6038L68.9155 48.2307L64.8795 52.4685L62.357 48.1298L61.0453 55.6973H59.5317L61.2471 45.7081Z" fill="#6C5F58"/>
<path id="Vector_8" d="M71.2354 55.7983L72.5471 48.4325H74.0606L72.7489 55.7983H71.2354ZM73.5561 47.2217C73.2534 47.2217 72.9507 47.1208 72.7489 46.919C72.5471 46.7172 72.5471 46.4145 72.5471 46.1118C72.5471 45.8091 72.7489 45.6073 72.9507 45.5064C73.1525 45.3046 73.3543 45.2037 73.657 45.2037C73.9597 45.2037 73.9597 45.2037 74.1615 45.3046C74.3633 45.4055 74.3633 45.5064 74.4642 45.6073C74.4642 45.7082 74.5651 45.8091 74.666 46.0109C74.7669 46.2127 74.666 46.3136 74.666 46.4145C74.666 46.7172 74.4642 46.919 74.2624 47.0199C74.0606 47.2217 73.8588 47.3226 73.5561 47.3226V47.2217Z" fill="#6C5F58"/>
<path id="Vector_9" d="M75.4741 48.3316H76.7858L77.0885 46.6163L78.7029 45.8091L78.1984 48.4325H80.0146L79.8128 49.7442H77.9966L77.4921 52.8722C77.4921 53.1749 77.3912 53.4776 77.4921 53.6794C77.4921 53.8812 77.4921 54.083 77.6939 54.1839C77.7948 54.2848 77.9966 54.3857 78.1984 54.3857C78.4002 54.3857 78.7029 54.3857 79.1065 54.3857L78.9047 55.6974H78.602C77.9966 55.6974 77.593 55.6974 77.1894 55.5965C76.7858 55.5965 76.584 55.2938 76.3822 55.092C76.1804 54.8902 76.0795 54.5875 75.9786 54.1839C75.9786 53.7803 75.9786 53.2757 75.9786 52.7712L76.4831 49.6433H75.1714L75.3732 48.3316H75.4741Z" fill="#6C5F58"/>
<path id="Vector_10" d="M86.1688 55.8992C85.2607 55.8992 84.5543 55.5965 84.1507 54.9911C83.7471 54.3857 83.5453 53.5785 83.7471 52.5695L84.4534 48.3316H85.967L85.2607 52.4686C85.1598 53.1749 85.2606 53.6794 85.4625 53.9821C85.6643 54.3857 86.0679 54.5875 86.6733 54.5875C87.2787 54.5875 87.6823 54.3857 88.0859 53.9821C88.4895 53.5785 88.6913 53.074 88.7922 52.2668L89.4985 48.2307H91.012L89.7003 55.5965H88.1868V54.6884C88.0859 54.9911 87.7832 55.2938 87.3796 55.4956C86.976 55.6974 86.5724 55.7983 86.1688 55.7983V55.8992Z" fill="#6C5F58"/>
<path id="Vector_11" d="M92.9302 48.3316H94.4437L94.2419 49.3406C94.5446 48.937 94.8473 48.6343 95.2509 48.4325C95.6545 48.2307 96.0581 48.1298 96.5626 48.1298C97.0671 48.1298 97.4707 48.1298 97.7734 48.4325C98.177 48.6343 98.3788 48.8361 98.6815 49.1388C98.8833 49.4415 99.0852 49.8451 99.0852 50.2487C99.0852 50.6523 99.0852 51.1568 99.0852 51.6613L98.3788 55.6973H96.8653L97.5716 51.6613C97.5716 51.3586 97.5716 51.0559 97.5716 50.7532C97.5716 50.4505 97.5716 50.2487 97.3698 50.0469C97.2689 49.8451 97.0671 49.7442 96.8653 49.6433C96.6635 49.5424 96.3608 49.4415 96.0581 49.4415C95.4527 49.4415 94.9482 49.6433 94.5446 50.0469C94.141 50.4505 93.9392 51.0559 93.7374 51.7622L93.0311 55.6973H91.5176L92.8293 48.3316H92.9302Z" fill="#6C5F58"/>
<path id="Vector_12" d="M103.02 55.8992C102.616 55.8992 102.213 55.8992 101.91 55.7983C101.607 55.7983 101.204 55.5965 101.002 55.3947C100.699 55.2938 100.497 55.092 100.296 54.8902C100.094 54.6884 99.8919 54.4866 99.791 54.2848L101.103 53.4776C101.305 53.7803 101.607 54.083 102.011 54.3857C102.414 54.5875 102.818 54.6884 103.323 54.6884C103.827 54.6884 104.029 54.6884 104.332 54.3857C104.533 54.1839 104.735 53.9821 104.735 53.6794C104.735 53.5785 104.735 53.3767 104.735 53.2758C104.735 53.1749 104.533 53.074 104.432 52.9731C104.231 52.9731 104.13 52.7713 103.827 52.6704C103.625 52.6704 103.423 52.4686 103.121 52.4686C102.818 52.4686 102.515 52.2668 102.213 52.1659C101.91 52.065 101.708 51.8632 101.506 51.6614C101.305 51.4596 101.103 51.2578 101.002 50.9551C101.002 50.6524 100.901 50.3497 101.002 49.9461C101.103 49.3406 101.405 48.937 102.011 48.5334C102.616 48.1298 103.222 48.0289 103.928 48.0289C104.634 48.0289 105.24 48.1298 105.744 48.4325C106.249 48.7352 106.652 49.0379 107.056 49.4415L105.845 50.2487C105.643 49.946 105.341 49.6433 105.038 49.5424C104.735 49.3406 104.332 49.2397 103.827 49.2397C103.323 49.2397 103.121 49.2397 102.919 49.4415C102.717 49.5424 102.515 49.7442 102.515 50.047C102.515 50.2488 102.515 50.3497 102.515 50.4506C102.515 50.5515 102.717 50.6524 102.818 50.7533C102.919 50.7533 103.121 50.9551 103.323 50.9551C103.524 50.9551 103.726 51.056 104.029 51.1569C104.332 51.1569 104.634 51.3587 104.937 51.4596C105.24 51.5605 105.441 51.7623 105.744 51.9641C105.946 52.1659 106.148 52.3677 106.249 52.6704C106.35 52.9731 106.35 53.2758 106.249 53.6794C106.249 53.9821 106.047 54.2848 105.946 54.4866C105.744 54.6884 105.542 54.9911 105.341 55.092C105.038 55.2938 104.735 55.3947 104.432 55.4956C104.13 55.4956 103.726 55.5965 103.323 55.5965L103.02 55.8992Z" fill="#6C5F58"/>
<path id="Vector_13" d="M110.184 54.3857L115.633 49.6433H111.193L111.496 48.3316H117.953L117.751 49.6433L112.303 54.3857H116.944L116.742 55.6974H110.083L110.285 54.3857H110.184Z" fill="#6C5F58"/>
<path id="Vector_14" d="M120.779 55.8992C119.871 55.8992 119.164 55.5965 118.761 54.9911C118.357 54.3857 118.155 53.5785 118.357 52.5695L119.063 48.3316H120.577L119.871 52.4686C119.77 53.1749 119.871 53.6794 120.072 53.9821C120.274 54.3857 120.678 54.5875 121.283 54.5875C121.889 54.5875 122.292 54.3857 122.696 53.9821C123.099 53.5785 123.301 53.074 123.402 52.2668L124.108 48.2307H125.622L124.31 55.5965H122.797V54.6884C122.696 54.9911 122.393 55.2938 121.989 55.4956C121.586 55.6974 121.182 55.7983 120.779 55.7983V55.8992Z" fill="#6C5F58"/>
<path id="Vector_15" d="M127.438 48.3316H128.952L128.75 49.3406C129.052 48.937 129.355 48.7352 129.759 48.5334C130.162 48.3316 130.566 48.2307 131.07 48.2307C131.575 48.2307 132.079 48.3316 132.483 48.5334C132.887 48.7352 133.189 49.1388 133.29 49.5424C133.593 49.1388 133.997 48.7352 134.4 48.5334C134.804 48.3316 135.308 48.2307 135.914 48.2307C136.519 48.2307 136.822 48.2307 137.125 48.4325C137.528 48.6343 137.831 48.8361 138.033 49.1388C138.234 49.4415 138.436 49.7442 138.537 50.2487C138.537 50.6523 138.537 51.1568 138.537 51.5604L137.73 55.7983H136.216L136.923 51.7622C136.923 51.4595 136.923 51.1568 136.923 50.8541C136.923 50.5514 136.923 50.3496 136.721 50.1478C136.62 49.946 136.418 49.8451 136.216 49.7442C136.015 49.6433 135.712 49.5424 135.409 49.5424C134.804 49.5424 134.299 49.7442 133.997 50.1478C133.694 50.5514 133.492 51.1568 133.29 51.7622L132.584 55.6974H131.07L131.777 51.6613C131.878 50.955 131.777 50.4505 131.676 50.0469C131.474 49.6433 131.07 49.4415 130.465 49.4415C129.86 49.4415 129.355 49.6433 129.052 50.0469C128.75 50.4505 128.447 51.0559 128.346 51.7622C128.346 51.7622 128.346 51.8632 128.346 51.9641C128.346 52.065 128.346 52.2668 128.346 52.4686C128.346 52.6704 128.346 52.8722 128.245 53.074C128.245 53.2758 128.245 53.5785 128.144 53.7803C128.144 54.3857 127.943 54.9911 127.842 55.5965H126.328L127.64 48.2307L127.438 48.3316Z" fill="#6C5F58"/>
<path id="Vector_16" d="M144.792 55.7983L146.306 47.2217H143.38L143.582 45.8091H151.048L150.847 47.2217H147.92L146.407 55.7983H144.893H144.792Z" fill="#6C5F58"/>
<path id="Vector_17" d="M150.947 48.3316H152.36L152.158 49.6433C152.36 49.2397 152.662 48.937 153.066 48.6343C153.369 48.4325 153.873 48.3316 154.378 48.3316H155.286L154.983 49.8451H154.176C153.772 49.8451 153.47 49.8451 153.167 49.946C152.864 49.946 152.662 50.1478 152.461 50.3496C152.259 50.5514 152.158 50.7532 152.057 51.0559C151.956 51.3586 151.855 51.6613 151.754 52.0649L151.149 55.6974H149.736L151.048 48.3316H150.947Z" fill="#6C5F58"/>
<path id="Vector_18" d="M158.818 55.8991C158.213 55.8991 157.708 55.7982 157.305 55.5964C156.901 55.3946 156.497 55.0919 156.195 54.6883C155.892 54.2847 155.69 53.8811 155.589 53.2757C155.488 52.7712 155.488 52.1658 155.589 51.6613C155.589 51.1568 155.791 50.7532 156.094 50.2487C156.296 49.8451 156.598 49.4415 157.002 49.1388C157.305 48.8361 157.708 48.6343 158.213 48.4325C158.616 48.2307 159.121 48.1298 159.625 48.1298C160.13 48.1298 160.836 48.2307 161.24 48.5334C161.643 48.8361 161.946 49.1388 162.249 49.6433L162.451 48.3316H163.964L162.652 55.6973H161.139L161.341 54.6883C161.038 54.991 160.735 55.2937 160.332 55.4955C159.928 55.6973 159.524 55.7982 158.919 55.7982L158.818 55.8991ZM159.222 54.4865C159.524 54.4865 159.827 54.4865 160.13 54.2847C160.433 54.1838 160.634 53.982 160.937 53.7802C161.139 53.5784 161.341 53.3766 161.543 53.0739C161.744 52.7712 161.845 52.4685 161.845 52.1658C161.845 51.7622 161.845 51.4595 161.845 51.1568C161.845 50.8541 161.643 50.5514 161.442 50.2487C161.24 50.0469 161.038 49.8451 160.735 49.6433C160.433 49.5424 160.13 49.4415 159.726 49.4415C159.323 49.4415 159.121 49.4415 158.818 49.6433C158.515 49.8451 158.314 49.946 158.011 50.1478C157.809 50.3496 157.607 50.5514 157.406 50.8541C157.204 51.1568 157.103 51.4595 157.103 51.7622C157.103 52.1658 157.103 52.4685 157.103 52.7712C157.103 53.0739 157.305 53.3766 157.506 53.6793C157.708 53.8811 157.91 54.1838 158.213 54.2847C158.515 54.4865 158.818 54.4865 159.222 54.4865Z" fill="#6C5F58"/>
<path id="Vector_19" d="M167.092 55.8992C166.183 55.8992 165.477 55.5965 165.074 54.9911C164.67 54.3857 164.468 53.5785 164.67 52.5695L165.376 48.3316H166.89L166.184 52.4686C166.083 53.1749 166.184 53.6794 166.385 53.9821C166.587 54.3857 166.991 54.5875 167.596 54.5875C168.202 54.5875 168.605 54.3857 169.009 53.9821C169.412 53.5785 169.614 53.074 169.715 52.2668L170.421 48.2307H171.935L170.623 55.5965H169.11V54.6884C169.009 54.9911 168.706 55.2938 168.302 55.4956C167.899 55.6974 167.495 55.7983 167.092 55.7983V55.8992Z" fill="#6C5F58"/>
<path id="Vector_20" d="M173.853 48.3316H175.366L175.164 49.3406C175.467 48.937 175.77 48.7352 176.173 48.5334C176.577 48.3316 176.981 48.2307 177.485 48.2307C177.99 48.2307 178.494 48.3316 178.898 48.5334C179.301 48.7352 179.604 49.1388 179.705 49.5424C180.008 49.1388 180.411 48.7352 180.815 48.5334C181.218 48.3316 181.723 48.2307 182.328 48.2307C182.934 48.2307 183.236 48.2307 183.539 48.4325C183.943 48.6343 184.245 48.8361 184.447 49.1388C184.649 49.4415 184.851 49.7442 184.952 50.2487C184.952 50.6523 184.952 51.1568 184.952 51.5604L184.144 55.7983H182.631L183.337 51.7622C183.337 51.4595 183.337 51.1568 183.337 50.8541C183.337 50.5514 183.337 50.3496 183.135 50.1478C183.035 49.946 182.833 49.8451 182.631 49.7442C182.429 49.6433 182.126 49.5424 181.824 49.5424C181.218 49.5424 180.714 49.7442 180.411 50.1478C180.108 50.5514 179.907 51.1568 179.705 51.7622L178.999 55.6974H177.485L178.191 51.6613C178.292 50.955 178.191 50.4505 178.09 50.0469C177.889 49.6433 177.485 49.4415 176.88 49.4415C176.274 49.4415 175.77 49.6433 175.467 50.0469C175.164 50.4505 174.862 51.0559 174.761 51.7622C174.761 51.7622 174.761 51.8632 174.761 51.9641C174.761 52.065 174.761 52.2668 174.761 52.4686C174.761 52.6704 174.761 52.8722 174.66 53.074C174.66 53.2758 174.66 53.5785 174.559 53.7803C174.559 54.3857 174.357 54.9911 174.256 55.5965H172.743L174.054 48.2307L173.853 48.3316Z" fill="#6C5F58"/>
<path id="Vector_21" d="M187.777 45.7081H191.611C192.217 45.7081 192.721 45.7081 193.125 46.0108C193.528 46.3135 193.932 46.4144 194.235 46.818C194.537 47.1207 194.739 47.5244 194.84 48.0289C194.941 48.4325 194.941 48.937 194.84 49.4415C194.739 50.1478 194.436 50.7532 193.932 51.2577C193.427 51.7622 192.822 52.0649 192.116 52.2667L193.932 55.7982H192.217L190.602 52.4685H187.979L187.373 55.7982H185.86L187.575 45.809L187.777 45.7081ZM188.988 47.0198L188.281 50.955H190.905C191.611 50.955 192.217 50.7532 192.62 50.4505C193.024 50.1478 193.226 49.6433 193.327 49.1388C193.427 48.4325 193.327 47.928 193.024 47.5244C192.721 47.1207 192.116 46.9189 191.409 46.9189H189.089L188.988 47.0198Z" fill="#6C5F58"/>
<path id="Vector_22" d="M198.875 55.8991C198.27 55.8991 197.765 55.7982 197.362 55.5964C196.958 55.3946 196.555 55.0919 196.252 54.6883C195.949 54.2847 195.747 53.8811 195.646 53.2757C195.546 52.7712 195.546 52.1658 195.646 51.6613C195.646 51.1568 195.848 50.7532 196.151 50.2487C196.353 49.8451 196.655 49.4415 197.059 49.1388C197.362 48.8361 197.765 48.6343 198.27 48.4325C198.673 48.2307 199.178 48.1298 199.683 48.1298C200.187 48.1298 200.893 48.2307 201.297 48.5334C201.701 48.8361 202.003 49.1388 202.306 49.6433L202.508 48.3316H204.021L202.71 55.6973H201.196L201.398 54.6883C201.095 54.991 200.792 55.2937 200.389 55.4955C199.985 55.6973 199.582 55.7982 198.976 55.7982L198.875 55.8991ZM199.279 54.4865C199.582 54.4865 199.884 54.4865 200.187 54.2847C200.49 54.1838 200.692 53.982 200.994 53.7802C201.196 53.5784 201.398 53.3766 201.6 53.0739C201.801 52.7712 201.902 52.4685 201.902 52.1658C201.902 51.7622 201.902 51.4595 201.902 51.1568C201.902 50.8541 201.701 50.5514 201.499 50.2487C201.297 50.0469 201.095 49.8451 200.792 49.6433C200.49 49.5424 200.187 49.4415 199.783 49.4415C199.38 49.4415 199.178 49.4415 198.875 49.6433C198.573 49.8451 198.371 49.946 198.068 50.1478C197.866 50.3496 197.664 50.5514 197.463 50.8541C197.261 51.1568 197.16 51.4595 197.16 51.7622C197.16 52.1658 197.16 52.4685 197.16 52.7712C197.16 53.0739 197.362 53.3766 197.564 53.6793C197.765 53.8811 197.967 54.1838 198.27 54.2847C198.573 54.4865 198.875 54.4865 199.279 54.4865Z" fill="#6C5F58"/>
<path id="Vector_23" d="M207.251 55.8992C206.343 55.8992 205.636 55.5965 205.233 54.9911C204.829 54.3857 204.627 53.5785 204.829 52.5695L205.535 48.3316H207.049L206.343 52.4686C206.242 53.1749 206.343 53.6794 206.544 53.9821C206.746 54.3857 207.15 54.5875 207.755 54.5875C208.361 54.5875 208.764 54.3857 209.168 53.9821C209.572 53.5785 209.773 53.074 209.874 52.2668L210.581 48.2307H212.094L210.782 55.5965H209.269V54.6884C209.168 54.9911 208.865 55.2938 208.462 55.4956C208.058 55.6974 207.654 55.7983 207.251 55.7983V55.8992Z" fill="#6C5F58"/>
<path id="Vector_24" d="M213.91 48.3316H215.423L215.221 49.3406C215.524 48.937 215.827 48.7352 216.23 48.5334C216.634 48.3316 217.038 48.2307 217.542 48.2307C218.047 48.2307 218.551 48.3316 218.955 48.5334C219.358 48.7352 219.661 49.1388 219.762 49.5424C220.065 49.1388 220.468 48.7352 220.872 48.5334C221.275 48.3316 221.78 48.2307 222.385 48.2307C222.991 48.2307 223.294 48.2307 223.596 48.4325C224 48.6343 224.303 48.8361 224.504 49.1388C224.706 49.4415 224.908 49.7442 225.009 50.2487C225.009 50.6523 225.009 51.1568 225.009 51.5604L224.202 55.7983H222.688L223.394 51.7622C223.394 51.4595 223.394 51.1568 223.394 50.8541C223.394 50.5514 223.394 50.3496 223.193 50.1478C223.092 49.946 222.89 49.8451 222.688 49.7442C222.486 49.6433 222.184 49.5424 221.881 49.5424C221.275 49.5424 220.771 49.7442 220.468 50.1478C220.166 50.5514 219.964 51.1568 219.762 51.7622L219.056 55.6974H217.542L218.248 51.6613C218.349 50.955 218.248 50.4505 218.148 50.0469C217.946 49.6433 217.542 49.4415 216.937 49.4415C216.331 49.4415 215.827 49.6433 215.524 50.0469C215.221 50.4505 214.919 51.0559 214.818 51.7622C214.818 51.7622 214.818 51.8632 214.818 51.9641C214.818 52.065 214.818 52.2668 214.818 52.4686C214.818 52.6704 214.818 52.8722 214.717 53.074C214.717 53.2758 214.717 53.5785 214.616 53.7803C214.616 54.3857 214.414 54.9911 214.313 55.5965H212.8L214.112 48.2307L213.91 48.3316Z" fill="#6C5F58"/>
<path id="Vector_25" d="M226.926 56C226.623 56 226.321 55.8991 226.119 55.6973C225.917 55.4955 225.917 55.1928 225.917 54.8901C225.917 54.5874 226.119 54.3856 226.321 54.1838C226.522 53.982 226.825 53.8811 227.027 53.8811C227.229 53.8811 227.33 53.8811 227.531 53.8811C227.632 53.8811 227.733 53.982 227.834 54.1838C227.834 54.2847 227.935 54.3856 228.036 54.5874C228.036 54.6883 228.036 54.8901 228.036 54.991C228.036 55.2937 227.834 55.4955 227.632 55.6973C227.431 55.8991 227.229 56 226.926 56Z" fill="#6C5F58"/>
</g>
</svg>
